<?xml version="1.0" encoding="UTF-8" standalone="no"?>
<!-- Created with Inkscape (http://www.inkscape.org/) -->

<svg
   width="512"
   height="512"
   viewBox="0 0 135.46666 135.46667"
   version="1.1"
   id="svg5"
   inkscape:version="1.2.2 (b0a8486541, 2022-12-01)"
   sodipodi:docname="neoblobiksb_defecationing.svg"
   inkscape:export-filename="neoblobiksb_defecationing.png"
   inkscape:export-xdpi="48"
   inkscape:export-ydpi="48"
   xml:space="preserve"
   xmlns:inkscape="http://www.inkscape.org/namespaces/inkscape"
   xmlns:sodipodi="http://sodipodi.sourceforge.net/DTD/sodipodi-0.dtd"
   xmlns:xlink="http://www.w3.org/1999/xlink"
   xmlns="http://www.w3.org/2000/svg"
   xmlns:svg="http://www.w3.org/2000/svg"><sodipodi:namedview
     id="namedview7"
     pagecolor="#ffffff"
     bordercolor="#000000"
     borderopacity="0.25"
     inkscape:showpageshadow="2"
     inkscape:pageopacity="0.0"
     inkscape:pagecheckerboard="0"
     inkscape:deskcolor="#d1d1d1"
     inkscape:document-units="mm"
     showgrid="false"
     inkscape:zoom="0.83353173"
     inkscape:cx="467.8886"
     inkscape:cy="237.54345"
     inkscape:window-width="1920"
     inkscape:window-height="1012"
     inkscape:window-x="0"
     inkscape:window-y="0"
     inkscape:window-maximized="1"
     inkscape:current-layer="layer1" /><defs
     id="defs2"><inkscape:path-effect
       effect="fillet_chamfer"
       id="path-effect3540"
       is_visible="true"
       lpeversion="1"
       nodesatellites_param="F,0,0,1,0,3.175,0,1 @ F,0,0,1,0,3.175,0,1 @ F,0,0,1,0,3.175,0,1 @ F,0,0,1,0,3.175,0,1 @ F,0,0,1,0,3.175,0,1 @ F,0,0,1,0,3.175,0,1"
       unit="px"
       method="auto"
       mode="F"
       radius="12"
       chamfer_steps="1"
       flexible="false"
       use_knot_distance="true"
       apply_no_radius="true"
       apply_with_radius="true"
       only_selected="false"
       hide_knots="false" /><inkscape:path-effect
       effect="roughen"
       id="path-effect3538"
       is_visible="false"
       lpeversion="1.2"
       method="size"
       max_segment_size="3"
       segments="4"
       displace_x="3;435789675"
       displace_y="3;1949089981"
       global_randomize="0.7;146593569"
       handles="along"
       shift_nodes="true"
       fixed_displacement="false"
       spray_tool_friendly="false" /><inkscape:path-effect
       effect="envelope"
       id="path-effect1086"
       is_visible="true"
       lpeversion="1"
       yy="true"
       xx="true"
       bendpath1="m -81.68988,-11.074188 h 54.56147"
       bendpath2="M -27.292394,-10.83224 -40.357577,64.871124"
       bendpath3="m -94.919047,64.871124 h 54.56147"
       bendpath4="M -77.256856,-10.590292 -94.919047,64.871124"
       bendpath1-nodetypes="cc"
       bendpath2-nodetypes="cc"
       bendpath4-nodetypes="cc" /><inkscape:path-effect
       effect="transform_2pts"
       start="-69.178057,-11.074188"
       end="-94.919047,14.666801"
       id="path-effect1080"
       is_visible="true"
       lpeversion="1"
       first_knot="1"
       last_knot="8"
       helper_size="3"
       stretch="1"
       offset="0"
       elastic="false"
       from_original_width="false"
       flip_vertical="false"
       flip_horizontal="false"
       lock_length="false"
       lock_angle="false" /><inkscape:path-effect
       effect="envelope"
       id="path-effect1075"
       is_visible="true"
       lpeversion="1"
       yy="true"
       xx="true"
       bendpath1="m -95.014061,-11.085274 h 54.56147"
       bendpath2="M -40.452591,-11.085274 V 64.860039"
       bendpath3="m -95.014061,64.860039 h 54.56147"
       bendpath4="M -95.014061,-11.085274 V 64.860039" /><inkscape:path-effect
       effect="transform_2pts"
       start="-95.014061,26.887383"
       end="-40.452591,26.887383"
       id="path-effect1073"
       is_visible="true"
       lpeversion="1"
       first_knot="1"
       last_knot="2"
       helper_size="3"
       stretch="1"
       offset="0"
       elastic="false"
       from_original_width="true"
       flip_vertical="false"
       flip_horizontal="false"
       lock_length="false"
       lock_angle="false" /><linearGradient
       inkscape:collect="always"
       id="linearGradient7258"><stop
         style="stop-color:#ffae0e;stop-opacity:1;"
         offset="0"
         id="stop7254" /><stop
         style="stop-color:#ffc61a;stop-opacity:1;"
         offset="0.29383886"
         id="stop7256" /></linearGradient><linearGradient
       inkscape:collect="always"
       id="linearGradient4142"><stop
         style="stop-color:#f34e18;stop-opacity:0.34999999;"
         offset="0"
         id="stop4138" /><stop
         style="stop-color:#f34e18;stop-opacity:0;"
         offset="1"
         id="stop4140" /></linearGradient><radialGradient
       inkscape:collect="always"
       xlink:href="#linearGradient4142"
       id="radialGradient4200"
       cx="30.74613"
       cy="98.631081"
       fx="30.74613"
       fy="98.631081"
       r="14.414044"
       gradientUnits="userSpaceOnUse"
       gradientTransform="matrix(1.5934592,0,0,1.5934592,-44.104997,-60.711042)" /><radialGradient
       inkscape:collect="always"
       xlink:href="#linearGradient4142"
       id="radialGradient4200-2"
       cx="30.74613"
       cy="98.631081"
       fx="30.74613"
       fy="98.631081"
       r="14.414044"
       gradientUnits="userSpaceOnUse"
       gradientTransform="matrix(1.5934592,0,0,1.5934592,26.966037,-57.323772)" /><linearGradient
       inkscape:collect="always"
       xlink:href="#linearGradient7258"
       id="linearGradient7260"
       x1="67.73333"
       y1="135.46666"
       x2="67.73333"
       y2="17.4625"
       gradientUnits="userSpaceOnUse"
       gradientTransform="translate(0.14603774,-0.32044433)" /><linearGradient
       inkscape:collect="always"
       id="linearGradient9004"><stop
         style="stop-color:#005499;stop-opacity:0.74686193;"
         offset="0"
         id="stop9000" /><stop
         style="stop-color:#003666;stop-opacity:0;"
         offset="1"
         id="stop9002" /></linearGradient><clipPath
       clipPathUnits="userSpaceOnUse"
       id="clipPath1338"><rect
         style="fill:#b46900;fill-opacity:1;stroke-width:1;stroke-linecap:round;stroke-linejoin:round;paint-order:markers stroke fill"
         id="rect1340-6"
         width="54.56147"
         height="75.945312"
         x="-64.265678"
         y="-70.042145"
         ry="25.74099" /></clipPath><radialGradient
       inkscape:collect="always"
       xlink:href="#linearGradient9004"
       id="radialGradient9008"
       cx="67.73333"
       cy="-51.265022"
       fx="67.73333"
       fy="-51.265022"
       r="110.39731"
       gradientTransform="matrix(-1,-4.6791838e-7,0,-0.68827479,-12.593434,-61.888482)"
       gradientUnits="userSpaceOnUse" /><mask
       maskUnits="userSpaceOnUse"
       id="mask9184"><g
         id="g9192"
         style="fill:#f9f9f9;fill-opacity:1"
         transform="translate(-148.06008,-71.897896)"><path
           id="path9186"
           style="fill:#f9f9f9;fill-opacity:1;stroke-linecap:round;stroke-linejoin:round;paint-order:markers stroke fill"
           d="m 135.46666,105.30416 c 0,37.40809 -30.32524,30.1625 -67.73333,30.1625 C 30.325245,135.46666 0,142.71225 0,105.30416 0,67.896078 18.349436,17.4625 67.73333,17.4625 c 49.38389,0 67.73333,50.433578 67.73333,87.84166 z"
           sodipodi:nodetypes="ssszs" /><path
           id="path9188"
           style="fill:#f9f9f9;fill-opacity:1;stroke-width:1.52371;stroke-linecap:round;stroke-linejoin:round;paint-order:markers stroke fill"
           d="M 42.745035,41.393246 C 29.946603,59.987842 14.251736,75.467841 4.4085403,52.977482 -5.434654,30.487127 2.1272472,21.695836 17.963879,21.695836 c 15.836633,0 37.579587,1.102814 24.781156,19.69741 z"
           sodipodi:nodetypes="zzsz" /><path
           id="path9190"
           style="fill:#f9f9f9;fill-opacity:1;stroke-width:1.52371;stroke-linecap:round;stroke-linejoin:round;paint-order:markers stroke fill"
           d="m 92.721646,41.393246 c 12.798464,18.594596 28.493384,34.074595 38.336604,11.584236 9.84322,-22.490355 2.2813,-31.281646 -13.55538,-31.281646 -15.83668,0 -37.579699,1.102814 -24.781224,19.69741 z"
           sodipodi:nodetypes="zzsz" /></g></mask><clipPath
       clipPathUnits="userSpaceOnUse"
       id="clipPath3212"><path
         id="path3214"
         style="fill:#ffffff;fill-opacity:1;stroke-width:1;stroke-linecap:round;stroke-linejoin:round;paint-order:markers stroke fill"
         d="m 135.46667,105.30416 c 0,37.40809 -30.32524,30.1625 -67.733334,30.1625 -37.408088,0 -67.733329,7.24559 -67.733329,-30.1625 0,-37.408079 6.1785999,-87.84166 55.56249,-87.84166 60.169083,0 79.904173,50.433581 79.904173,87.84166 z"
         sodipodi:nodetypes="ssscs" /></clipPath><clipPath
       clipPathUnits="userSpaceOnUse"
       id="clipPath6423"><path
         id="path6425"
         d="m -55.852349,-11.061156 c 1.024427,-0.0023 2.047062,-0.0021 3.079772,4.24e-4 7.218076,0.01791 13.297071,3.1176946 17.055014,7.7948118 3.750152,4.6674205 5.319119,11.0041223 4.091123,18.0904812 -0.460626,2.65812 -3.74799,21.731155 -4.208617,24.389276 -1.2282,7.132989 -5.160713,13.656612 -10.655068,18.321998 -5.47903,4.652374 -12.390009,7.359812 -19.515692,7.347545 -1.029425,-0.0018 -2.049322,-0.0019 -3.079428,-3.08e-4 -7.127684,0.01086 -13.129849,-2.698451 -16.777062,-7.33817 -3.686145,-4.689247 -4.805101,-11.104681 -3.064839,-18.243801 1.972951,-8.09369 3.940964,-16.188308 5.608245,-24.316172 1.433188,-6.9866819 4.845242,-13.5477437 9.398066,-18.1812697 4.654685,-4.7371922 10.968272,-7.8487993 18.068486,-7.8648153 z"
         style="fill:#9a6800;fill-opacity:1;stroke-width:1;stroke-linecap:round;stroke-linejoin:round;paint-order:markers stroke fill"
         transform="translate(-25.276201,-0.31742422)"
         inkscape:original-d="m -69.178057,-11.074188 c 1.026497,0 2.052994,0 3.07949,0 14.260509,0 25.74099,11.48048093 25.74099,25.740989 0,8.154445 0,16.308889 0,24.463333 0,14.260509 -11.480481,25.74099 -25.74099,25.74099 -1.026496,0 -2.052993,0 -3.07949,0 -14.260509,0 -25.74099,-11.480481 -25.74099,-25.74099 0,-8.154444 0,-16.308888 0,-24.463333 0,-14.26050807 11.480481,-25.740989 25.74099,-25.740989 z"
         inkscape:path-effect="#path-effect1086"
         class="UnoptimicedTransforms" /></clipPath></defs><g
     inkscape:label="Layer 1"
     inkscape:groupmode="layer"
     id="layer1"><path
       id="path385"
       style="fill:#ffc61a;fill-opacity:1;stroke-width:1.52371;stroke-linecap:round;stroke-linejoin:round;paint-order:markers stroke fill"
       d="M 40.964487,49.494169 C 23.789516,64.142692 4.6229198,75.033092 0.93605616,50.761467 -2.7508073,26.489845 6.8287819,19.955272 22.125794,24.054095 31.68075,26.61434 58.139458,34.845646 40.964487,49.494169 Z"
       sodipodi:nodetypes="zzsz" /><path
       id="path385-3"
       style="fill:#ffc61a;fill-opacity:1;stroke-width:1.52371;stroke-linecap:round;stroke-linejoin:round;paint-order:markers stroke fill"
       d="m 76.657179,36.839466 c 12.798464,18.594596 28.493381,34.074595 38.336591,11.584236 9.84322,-22.490356 2.2813,-31.281649 -13.55537,-31.281649 -15.836677,0 -37.579696,1.102814 -24.781221,19.697413 z"
       sodipodi:nodetypes="zzsz" /><path
       id="path286"
       style="fill:url(#linearGradient7260);fill-opacity:1;stroke-linecap:round;stroke-linejoin:round;paint-order:markers stroke fill"
       d="m 135.61269,104.98372 c 0,37.40812 -30.32524,30.16253 -67.733322,30.16253 -37.408085,0 -67.73333026,7.24559 -67.73333026,-30.16253 0,-37.408086 6.17860266,-87.841667 55.56249726,-87.841667 60.169065,0 79.904155,50.433581 79.904155,87.841667 z"
       sodipodi:nodetypes="ssscs" /><g
       id="g3166"
       clip-path="url(#clipPath3212)"
       transform="translate(0.14603774,-0.32044433)"><circle
         style="mix-blend-mode:color-burn;fill:url(#radialGradient4200);fill-opacity:1;stroke:none;stroke-width:6.00001;stroke-linecap:round;stroke-linejoin:round;stroke-dasharray:none;stroke-opacity:1;paint-order:markers stroke fill"
         id="path4136"
         cx="4.8877068"
         cy="96.45356"
         r="22.968191" /><circle
         style="mix-blend-mode:color-burn;fill:url(#radialGradient4200-2);fill-opacity:1;stroke:none;stroke-width:6.00001;stroke-linecap:round;stroke-linejoin:round;stroke-dasharray:none;stroke-opacity:1;paint-order:markers stroke fill"
         id="path4136-2"
         cx="75.95874"
         cy="99.840828"
         r="22.968191" /></g><path
       id="path286-2"
       style="fill:#9a6800;fill-opacity:1;stroke-linecap:round;stroke-linejoin:round;paint-order:markers stroke fill"
       d="m 0,96.956209 c 0,37.408081 -30.325237,30.162501 -67.733327,30.162501 -37.408083,0 -67.733333,7.24558 -67.733333,-30.162501 0,-37.408082 6.1786,-87.84166 55.5625,-87.84166 C -19.735087,9.114549 0,59.548127 0,96.956209 Z"
       sodipodi:nodetypes="ssscs"
       clip-path="url(#clipPath6423)"
       transform="translate(135.61269,8.027504)" /><path
       id="path1394-6-7"
       style="fill:#1a1a1a;stroke-linecap:round;stroke-linejoin:round;paint-order:markers stroke fill"
       d="m 28.637012,91.264166 c -1.179954,4.403647 -4.610688,2.92788 -9.014336,1.747928 -4.403647,-1.179954 -8.112635,-1.617271 -6.932681,-6.020918 1.179954,-4.403647 4.473731,-2.416746 8.877379,-1.236792 4.403647,1.179954 8.249592,1.106135 7.069638,5.509782 z"
       sodipodi:nodetypes="sssss" /><path
       id="path1394-6-7-8"
       style="fill:#1a1a1a;stroke-linecap:round;stroke-linejoin:round;paint-order:markers stroke fill"
       d="m 67.511735,86.771007 c 1.179954,4.403647 -2.529033,4.840963 -6.93268,6.020917 -4.403647,1.179954 -7.834383,2.65572 -9.014337,-1.747927 -1.179954,-4.403647 2.665992,-4.329829 7.069639,-5.509782 4.403648,-1.179954 7.697424,-3.166855 8.877378,1.236792 z"
       sodipodi:nodetypes="sssss" /><path
       style="color:#000000;fill:#f32b18;stroke-linecap:round;stroke-linejoin:round;-inkscape-stroke:none;paint-order:markers stroke fill"
       d="m 61.845776,105.87291 c -0.303365,-1.75967 -1.67987,-3.14154 -3.226602,-3.92044 -1.492263,-0.75907 -3.125819,-1.17406 -4.66894,-1.8126 -2.436759,-0.953119 -4.91343,-1.885678 -7.522677,-2.228909 -2.842889,-0.45549 -5.730295,-0.560867 -8.605218,-0.506806 v 1e-5 c -4.585497,0.169736 -9.250124,0.954533 -13.34961,3.107425 -2.674171,1.43832 -5.060317,3.62806 -6.232421,6.47656 -0.688215,1.96383 -0.420664,4.62691 3.109036,4.62691 3.5297,0 3.988862,-2.26669 4.646508,-3.17209 1.569468,-2.23214 1.379105,-4.28238 3.803049,-5.58958 3.591105,-2.02115 7.843526,-2.56546 11.901722,-2.18688 3.451415,0.32004 6.847362,1.51268 9.62787,3.60432 1.768479,1.24998 1.640647,2.35672 2.837437,4.22817 0.635775,0.92312 0.335272,3.17862 4.479844,2.87862 4.144571,-0.3 3.490135,-3.39379 3.200002,-5.50471 z"
       id="path1721"
       sodipodi:nodetypes="cccccccszcsscczc" /><g
       inkscape:label="Layer 1"
       id="layer1-6"
       transform="translate(-64.683989,-89.829227)" /></g></svg>
