<?xml version="1.0" encoding="UTF-8" standalone="no"?>
<!-- Created with Inkscape (http://www.inkscape.org/) -->

<svg
   width="512"
   height="512"
   viewBox="0 0 135.46666 135.46667"
   version="1.1"
   id="svg5"
   inkscape:version="1.2.2 (b0a8486541, 2022-12-01)"
   sodipodi:docname="neoblobiksb_smile_with_hearts.svg"
   inkscape:export-filename="neoblobiksb_smile_with_hearts.png"
   inkscape:export-xdpi="48"
   inkscape:export-ydpi="48"
   xmlns:inkscape="http://www.inkscape.org/namespaces/inkscape"
   xmlns:sodipodi="http://sodipodi.sourceforge.net/DTD/sodipodi-0.dtd"
   xmlns:xlink="http://www.w3.org/1999/xlink"
   xmlns="http://www.w3.org/2000/svg"
   xmlns:svg="http://www.w3.org/2000/svg">
  <sodipodi:namedview
     id="namedview7"
     pagecolor="#ffffff"
     bordercolor="#000000"
     borderopacity="0.25"
     inkscape:showpageshadow="2"
     inkscape:pageopacity="0.0"
     inkscape:pagecheckerboard="0"
     inkscape:deskcolor="#d1d1d1"
     inkscape:document-units="mm"
     showgrid="false"
     inkscape:zoom="0.77326038"
     inkscape:cx="67.247723"
     inkscape:cy="215.96865"
     inkscape:window-width="1920"
     inkscape:window-height="1012"
     inkscape:window-x="0"
     inkscape:window-y="0"
     inkscape:window-maximized="1"
     inkscape:current-layer="layer1">
    <inkscape:grid
       type="xygrid"
       id="grid569" />
  </sodipodi:namedview>
  <defs
     id="defs2">
    <linearGradient
       inkscape:collect="always"
       id="linearGradient7258">
      <stop
         style="stop-color:#ffae0e;stop-opacity:1;"
         offset="0"
         id="stop7254" />
      <stop
         style="stop-color:#ffc61a;stop-opacity:1;"
         offset="0.29383886"
         id="stop7256" />
    </linearGradient>
    <linearGradient
       inkscape:collect="always"
       id="linearGradient4142">
      <stop
         style="stop-color:#f34e18;stop-opacity:0.34999999;"
         offset="0"
         id="stop4138" />
      <stop
         style="stop-color:#f34e18;stop-opacity:0;"
         offset="1"
         id="stop4140" />
    </linearGradient>
    <clipPath
       clipPathUnits="userSpaceOnUse"
       id="clipPath1338">
      <rect
         style="fill:#b46900;fill-opacity:1;stroke-width:1;stroke-linecap:round;stroke-linejoin:round;paint-order:markers stroke fill"
         id="rect1340"
         width="54.56147"
         height="75.945312"
         x="-64.265678"
         y="-70.042145"
         ry="25.74099" />
    </clipPath>
    <radialGradient
       inkscape:collect="always"
       xlink:href="#linearGradient4142"
       id="radialGradient4200"
       cx="30.74613"
       cy="98.631081"
       fx="30.74613"
       fy="98.631081"
       r="14.414044"
       gradientUnits="userSpaceOnUse"
       gradientTransform="matrix(1.5934592,0,0,1.5934592,-18.246572,-58.533512)" />
    <radialGradient
       inkscape:collect="always"
       xlink:href="#linearGradient4142"
       id="radialGradient4200-2"
       cx="30.74613"
       cy="98.631081"
       fx="30.74613"
       fy="98.631081"
       r="14.414044"
       gradientUnits="userSpaceOnUse"
       gradientTransform="matrix(1.5934592,0,0,1.5934592,55.72784,-58.533511)" />
    <linearGradient
       inkscape:collect="always"
       xlink:href="#linearGradient7258"
       id="linearGradient7260"
       x1="67.73333"
       y1="135.46666"
       x2="67.73333"
       y2="17.4625"
       gradientUnits="userSpaceOnUse" />
  </defs>
  <g
     inkscape:label="Layer 1"
     inkscape:groupmode="layer"
     id="layer1">
    <g
       id="g365">
      <path
         id="path286"
         style="fill:url(#linearGradient7260);fill-opacity:1;stroke-linecap:round;stroke-linejoin:round;paint-order:markers stroke fill"
         d="m 135.46666,105.30416 c 0,37.40809 -30.32524,30.1625 -67.73333,30.1625 C 30.325245,135.46666 0,142.71225 0,105.30416 0,67.896078 18.349436,17.4625 67.73333,17.4625 c 49.38389,0 67.73333,50.433578 67.73333,87.84166 z"
         sodipodi:nodetypes="ssszs" />
      <path
         id="path385"
         style="fill:#ffc61a;fill-opacity:1;stroke-width:1.52371;stroke-linecap:round;stroke-linejoin:round;paint-order:markers stroke fill"
         d="M 42.745035,41.393246 C 29.946603,59.987842 14.251736,75.467841 4.4085403,52.977482 -5.434654,30.487127 2.1272472,21.695836 17.963879,21.695836 c 15.836633,0 37.579587,1.102814 24.781156,19.69741 z"
         sodipodi:nodetypes="zzsz" />
      <path
         id="path385-3"
         style="fill:#ffc61a;fill-opacity:1;stroke-width:1.52371;stroke-linecap:round;stroke-linejoin:round;paint-order:markers stroke fill"
         d="m 92.721646,41.393246 c 12.798464,18.594596 28.493384,34.074595 38.336604,11.584236 9.84322,-22.490355 2.2813,-31.281646 -13.55538,-31.281646 -15.83668,0 -37.579699,1.102814 -24.781224,19.69741 z"
         sodipodi:nodetypes="zzsz" />
    </g>
    <circle
       style="mix-blend-mode:color-burn;fill:url(#radialGradient4200);fill-opacity:1;stroke:none;stroke-width:6.00001;stroke-linecap:round;stroke-linejoin:round;stroke-dasharray:none;stroke-opacity:1;paint-order:markers stroke fill"
       id="path4136"
       cx="30.746132"
       cy="98.631088"
       r="22.968191" />
    <circle
       style="mix-blend-mode:color-burn;fill:url(#radialGradient4200-2);fill-opacity:1;stroke:none;stroke-width:6.00001;stroke-linecap:round;stroke-linejoin:round;stroke-dasharray:none;stroke-opacity:1;paint-order:markers stroke fill"
       id="path4136-2"
       cx="104.72054"
       cy="98.631088"
       r="22.968191" />
    <path
       id="path286-7"
       style="fill:#9a6800;fill-opacity:1;stroke-linecap:round;stroke-linejoin:round;paint-order:markers stroke fill"
       d="m 30.74838,37.999338 c 0,37.40809 -30.32524,30.1625 -67.73333,30.1625 -37.408085,0 -67.73333,7.24559 -67.73333,-30.1625 0,-37.408082 18.349436,-87.84166 67.73333,-87.84166 49.38389,0 67.73333,50.433578 67.73333,87.84166 z"
       sodipodi:nodetypes="ssszs"
       clip-path="url(#clipPath1338)"
       transform="translate(104.71828,67.304822)" />
    <path
       id="path1394-6-7"
       style="fill:#1a1a1a;stroke-width:1.40858;stroke-linecap:round;stroke-linejoin:round;paint-order:markers stroke fill"
       d="m 52.080144,90.122401 c 0,6.421715 -5.205829,1.192295 -11.627543,1.192295 -6.421714,0 -11.627542,5.22942 -11.627542,-1.192295 0,-6.421714 5.205828,-7.900667 11.627542,-7.900669 6.421714,0 11.627543,1.478955 11.627543,7.900669 z"
       sodipodi:nodetypes="szsss" />
    <path
       id="path1394-6-7-6"
       style="fill:#1a1a1a;stroke-width:1.40858;stroke-linecap:round;stroke-linejoin:round;paint-order:markers stroke fill"
       d="m 106.64161,90.1224 c 0,6.421718 -5.20583,1.192298 -11.627539,1.192298 -6.421714,0 -11.627542,5.22942 -11.627542,-1.192298 0,-6.421714 5.205828,-7.900667 11.627542,-7.900669 6.421709,0 11.627539,1.478955 11.627539,7.900669 z"
       sodipodi:nodetypes="szsss" />
    <path
       style="fill:none;fill-opacity:1;stroke:#f32b18;stroke-width:8;stroke-linecap:round;stroke-linejoin:round;stroke-dasharray:none;stroke-opacity:1;paint-order:markers stroke fill"
       d="m 50.159072,100.67734 c 0,0 2.322124,6.87917 17.418693,6.87917 15.096568,0 17.729836,-6.87917 17.729836,-6.87917"
       id="path1721"
       sodipodi:nodetypes="czc" />
    <path
       id="rect571"
       style="fill:#f32b18;fill-opacity:1;stroke:none;stroke-width:2.00033;stroke-linejoin:round;stroke-opacity:1;paint-order:markers stroke fill"
       d="m 11.774675,44.084715 c 8.179518,-2.19169 11.832342,11.44084 11.832342,11.44084 0,0 -3.652824,-13.63253 4.526693,-15.824225 8.179518,-2.191696 15.904481,2.086315 17.285361,9.979695 1.380863,7.8934 -15.967534,27.65657 -15.967534,27.65657 0,0 -25.2347645,-7.99996 -27.6565742,-15.96752 -2.42179728,-7.96756 1.8001899,-15.09366 9.9797122,-17.28536 z"
       sodipodi:nodetypes="zczzczz" />
    <path
       id="rect571-7"
       style="fill:#f32b18;fill-opacity:1;stroke:none;stroke-width:2.00033;stroke-linejoin:round;stroke-opacity:1;paint-order:markers stroke fill"
       d="m 99.8618,20.605969 c 8.17952,2.191701 4.52669,15.824229 4.52669,15.824229 0,0 3.65283,-13.632528 11.83234,-11.440835 8.17952,2.191694 12.73053,9.759041 9.97971,17.285351 -2.75084,7.526313 -27.656568,15.967526 -27.656568,15.967526 0,0 -17.853966,-19.545552 -15.967535,-27.656566 1.886441,-8.111008 9.10584,-12.171398 17.285363,-9.979705 z"
       sodipodi:nodetypes="zczzczz" />
    <path
       id="rect571-7-5"
       style="fill:#f32b18;fill-opacity:1;stroke:none;stroke-width:2.00033;stroke-linejoin:round;stroke-opacity:1;paint-order:markers stroke fill"
       d="m 107.30151,95.958527 c 8.17952,2.1917 4.52669,15.824223 4.52669,15.824223 0,0 3.65283,-13.632523 11.83234,-11.44083 8.17952,2.19169 12.73053,9.75904 9.97971,17.28535 -2.75084,7.52631 -27.65657,15.96752 -27.65657,15.96752 0,0 -17.853965,-19.54555 -15.967534,-27.65656 1.886442,-8.111006 9.105842,-12.171396 17.285364,-9.979703 z"
       sodipodi:nodetypes="zczzczz" />
  </g>
</svg>
