<?xml version="1.0" encoding="UTF-8" standalone="no"?>
<!-- Created with Inkscape (http://www.inkscape.org/) -->

<svg
   width="512"
   height="512"
   viewBox="0 0 135.46666 135.46667"
   version="1.1"
   id="svg5"
   inkscape:version="1.2.2 (b0a8486541, 2022-12-01)"
   sodipodi:docname="neoblobiksb_pleading.svg"
   inkscape:export-filename="neoblobiksb_pleading.png"
   inkscape:export-xdpi="48"
   inkscape:export-ydpi="48"
   xmlns:inkscape="http://www.inkscape.org/namespaces/inkscape"
   xmlns:sodipodi="http://sodipodi.sourceforge.net/DTD/sodipodi-0.dtd"
   xmlns:xlink="http://www.w3.org/1999/xlink"
   xmlns="http://www.w3.org/2000/svg"
   xmlns:svg="http://www.w3.org/2000/svg">
  <sodipodi:namedview
     id="namedview7"
     pagecolor="#ffffff"
     bordercolor="#000000"
     borderopacity="0.25"
     inkscape:showpageshadow="2"
     inkscape:pageopacity="0.0"
     inkscape:pagecheckerboard="0"
     inkscape:deskcolor="#d1d1d1"
     inkscape:document-units="mm"
     showgrid="false"
     inkscape:zoom="0.77326038"
     inkscape:cx="250.88574"
     inkscape:cy="292.26895"
     inkscape:window-width="1920"
     inkscape:window-height="1012"
     inkscape:window-x="0"
     inkscape:window-y="0"
     inkscape:window-maximized="1"
     inkscape:current-layer="layer1" />
  <defs
     id="defs2">
    <linearGradient
       inkscape:collect="always"
       id="linearGradient7258">
      <stop
         style="stop-color:#ffae0e;stop-opacity:1;"
         offset="0"
         id="stop7254" />
      <stop
         style="stop-color:#ffc61a;stop-opacity:1;"
         offset="0.29383886"
         id="stop7256" />
    </linearGradient>
    <linearGradient
       inkscape:collect="always"
       id="linearGradient4142">
      <stop
         style="stop-color:#f34e18;stop-opacity:0.34999999;"
         offset="0"
         id="stop4138" />
      <stop
         style="stop-color:#f34e18;stop-opacity:0;"
         offset="1"
         id="stop4140" />
    </linearGradient>
    <clipPath
       clipPathUnits="userSpaceOnUse"
       id="clipPath1338">
      <rect
         style="fill:#b46900;fill-opacity:1;stroke-width:1;stroke-linecap:round;stroke-linejoin:round;paint-order:markers stroke fill"
         id="rect1340"
         width="54.56147"
         height="75.945312"
         x="-64.265678"
         y="-70.042145"
         ry="25.74099" />
    </clipPath>
    <radialGradient
       inkscape:collect="always"
       xlink:href="#linearGradient4142"
       id="radialGradient4200"
       cx="30.74613"
       cy="98.631081"
       fx="30.74613"
       fy="98.631081"
       r="14.414044"
       gradientUnits="userSpaceOnUse"
       gradientTransform="matrix(1.5934592,0,0,1.5934592,-18.246572,-58.533512)" />
    <radialGradient
       inkscape:collect="always"
       xlink:href="#linearGradient4142"
       id="radialGradient4200-2"
       cx="30.74613"
       cy="98.631081"
       fx="30.74613"
       fy="98.631081"
       r="14.414044"
       gradientUnits="userSpaceOnUse"
       gradientTransform="matrix(1.5934592,0,0,1.5934592,55.72784,-58.533511)" />
    <linearGradient
       inkscape:collect="always"
       xlink:href="#linearGradient7258"
       id="linearGradient7260"
       x1="67.73333"
       y1="135.46666"
       x2="67.73333"
       y2="17.4625"
       gradientUnits="userSpaceOnUse" />
  </defs>
  <g
     inkscape:label="Layer 1"
     inkscape:groupmode="layer"
     id="layer1">
    <g
       id="g365">
      <path
         id="path286"
         style="fill:url(#linearGradient7260);fill-opacity:1;stroke-linecap:round;stroke-linejoin:round;paint-order:markers stroke fill"
         d="m 135.46666,105.30416 c 0,37.40809 -30.32524,30.1625 -67.73333,30.1625 C 30.325245,135.46666 0,142.71225 0,105.30416 0,67.896078 18.349436,17.4625 67.73333,17.4625 c 49.38389,0 67.73333,50.433578 67.73333,87.84166 z"
         sodipodi:nodetypes="ssszs" />
      <path
         id="path385"
         style="fill:#ffc61a;fill-opacity:1;stroke-width:1.52371;stroke-linecap:round;stroke-linejoin:round;paint-order:markers stroke fill"
         d="M 42.745035,41.393246 C 29.946603,59.987842 14.251736,75.467841 4.4085403,52.977482 -5.434654,30.487127 2.1272472,21.695836 17.963879,21.695836 c 15.836633,0 37.579587,1.102814 24.781156,19.69741 z"
         sodipodi:nodetypes="zzsz" />
      <path
         id="path385-3"
         style="fill:#ffc61a;fill-opacity:1;stroke-width:1.52371;stroke-linecap:round;stroke-linejoin:round;paint-order:markers stroke fill"
         d="m 92.721646,41.393246 c 12.798464,18.594596 28.493384,34.074595 38.336604,11.584236 9.84322,-22.490355 2.2813,-31.281646 -13.55538,-31.281646 -15.83668,0 -37.579699,1.102814 -24.781224,19.69741 z"
         sodipodi:nodetypes="zzsz" />
    </g>
    <circle
       style="mix-blend-mode:color-burn;fill:url(#radialGradient4200);fill-opacity:1;stroke:none;stroke-width:6.00001;stroke-linecap:round;stroke-linejoin:round;stroke-dasharray:none;stroke-opacity:1;paint-order:markers stroke fill"
       id="path4136"
       cx="30.746132"
       cy="98.631088"
       r="22.968191" />
    <circle
       style="mix-blend-mode:color-burn;fill:url(#radialGradient4200-2);fill-opacity:1;stroke:none;stroke-width:6.00001;stroke-linecap:round;stroke-linejoin:round;stroke-dasharray:none;stroke-opacity:1;paint-order:markers stroke fill"
       id="path4136-2"
       cx="104.72054"
       cy="98.631088"
       r="22.968191" />
    <path
       id="path286-7"
       style="fill:#9a6800;fill-opacity:1;stroke-linecap:round;stroke-linejoin:round;paint-order:markers stroke fill"
       d="m 30.74838,37.999338 c 0,37.40809 -30.32524,30.1625 -67.73333,30.1625 -37.408085,0 -67.73333,7.24559 -67.73333,-30.1625 0,-37.408082 18.349436,-87.84166 67.73333,-87.84166 49.38389,0 67.73333,50.433578 67.73333,87.84166 z"
       sodipodi:nodetypes="ssszs"
       clip-path="url(#clipPath1338)"
       transform="translate(104.71828,67.304822)" />
    <path
       style="fill:none;fill-opacity:1;stroke:#f32b18;stroke-width:8;stroke-linecap:round;stroke-linejoin:round;stroke-dasharray:none;stroke-opacity:1;paint-order:markers stroke fill"
       d="m 53.334072,116.5524 c 0,0 2.910949,-6.87917 14.243693,-6.87917 11.332744,0 14.554836,6.87917 14.554836,6.87917"
       id="path1721"
       sodipodi:nodetypes="czc" />
    <path
       id="path4357"
       style="fill:#60c1f3;stroke-width:6.00001;stroke-linecap:round;stroke-linejoin:round;paint-order:markers fill stroke"
       d="m 57.356779,95.782303 c 3e-6,5.176397 -9.793242,10.960197 -19.262783,10.960197 -9.469541,0 -15.029452,-5.7838 -15.029449,-10.960197 0,-5.176396 7.676578,-9.372694 17.146116,-9.372694 9.469538,0 17.146116,4.196298 17.146116,9.372694 z"
       sodipodi:nodetypes="sssss" />
    <path
       id="path3626"
       style="fill:#f3f3f3;stroke-width:6.00001;stroke-linecap:round;stroke-linejoin:round;paint-order:markers fill stroke"
       d="m 57.356778,89.918515 c -10e-7,9.471468 -7.676579,13.445435 -17.146117,13.445435 -9.469538,0 -17.146115,-3.973967 -17.146116,-13.445435 0,-9.471469 10.851578,-17.149611 20.321116,-17.149611 9.469539,-1e-6 13.971117,7.678142 13.971117,17.149611 z"
       sodipodi:nodetypes="sssss" />
    <path
       id="path1180"
       style="fill:#000000;fill-opacity:1;stroke-width:6.00001;stroke-linecap:round;stroke-linejoin:round;paint-order:markers fill stroke"
       d="m 52.469221,89.29576 c -3e-6,6.770214 -5.488347,12.25855 -12.258561,12.25855 -6.770213,0 -12.258557,-5.488337 -12.25856,-12.25855 0,-6.770216 8.663344,-12.25856 15.43356,-12.25856 6.770216,-10e-7 9.083561,5.488344 9.083561,12.25856 z"
       sodipodi:nodetypes="sssss" />
    <path
       id="path1391"
       style="fill:#f3f3f3;stroke-width:6.00001;stroke-linecap:round;stroke-linejoin:round;paint-order:markers fill stroke"
       d="m 48.920086,93.851821 c 0,4.070535 -3.899343,6.06359 -8.709426,6.06359 -4.810083,0 -8.709426,-1.993056 -8.709426,-6.06359 0,-4.810083 3.899343,-0.24276 8.709426,-0.24276 4.810083,0 8.709426,-4.567323 8.709426,0.24276 z"
       sodipodi:nodetypes="sssss" />
    <circle
       style="fill:#f3f3f3;fill-opacity:1;stroke-width:6.00001;stroke-linecap:round;stroke-linejoin:round;paint-order:markers fill stroke"
       id="path4354"
       cx="33.229275"
       cy="82.439659"
       r="4.2977433" />
    <path
       id="path4357-3"
       style="fill:#60c1f3;stroke-width:6.00001;stroke-linecap:round;stroke-linejoin:round;paint-order:markers fill stroke"
       transform="scale(-1,1)"
       d="m -77.626001,95.782303 c 3e-6,5.176397 -9.793243,10.960197 -19.262784,10.960197 -9.469545,0 -15.029445,-5.7838 -15.029445,-10.960197 0,-5.176395 7.67658,-9.372693 17.146112,-9.372694 9.469539,0 17.146117,4.196298 17.146117,9.372694 z"
       sodipodi:nodetypes="sssss" />
    <path
       id="path3626-5"
       style="fill:#f3f3f3;stroke-width:6.00001;stroke-linecap:round;stroke-linejoin:round;paint-order:markers fill stroke"
       d="m 77.626003,89.918515 c 10e-7,9.471468 7.676579,13.445435 17.146117,13.445435 9.46954,0 17.14611,-3.973967 17.14612,-13.445435 0,-9.471469 -10.85158,-17.149611 -20.32112,-17.149611 -9.469539,-1e-6 -13.971117,7.678142 -13.971117,17.149611 z"
       sodipodi:nodetypes="sssss" />
    <path
       id="path1180-6"
       style="fill:#000000;fill-opacity:1;stroke-width:6.00001;stroke-linecap:round;stroke-linejoin:round;paint-order:markers fill stroke"
       d="m 82.51356,89.29576 c 3e-6,6.770214 5.488347,12.25855 12.258561,12.25855 6.770209,0 12.258559,-5.488337 12.258559,-12.25855 0,-6.770216 -8.663343,-12.25856 -15.433559,-12.25856 -6.770216,-10e-7 -9.083561,5.488344 -9.083561,12.25856 z"
       sodipodi:nodetypes="sssss" />
    <path
       id="path1391-2"
       style="fill:#f3f3f3;stroke-width:6.00001;stroke-linecap:round;stroke-linejoin:round;paint-order:markers fill stroke"
       d="m 86.062695,93.851821 c 0,4.070535 3.899343,6.06359 8.709426,6.06359 4.810083,0 8.709429,-1.993056 8.709429,-6.06359 0,-4.810083 -3.899346,-0.24276 -8.709429,-0.24276 -4.810083,0 -8.709426,-4.567323 -8.709426,0.24276 z"
       sodipodi:nodetypes="sssss" />
    <circle
       style="fill:#f3f3f3;fill-opacity:1;stroke-width:6.00001;stroke-linecap:round;stroke-linejoin:round;paint-order:markers fill stroke"
       id="path4354-9"
       cx="-86.062698"
       cy="82.439659"
       r="4.2977433"
       transform="scale(-1,1)" />
  </g>
</svg>
