<?xml version="1.0" encoding="UTF-8" standalone="no"?>
<!-- Created with Inkscape (http://www.inkscape.org/) -->

<svg
   width="512"
   height="512"
   viewBox="0 0 135.46666 135.46667"
   version="1.1"
   id="svg5"
   inkscape:version="1.2.2 (b0a8486541, 2022-12-01)"
   sodipodi:docname="neoblobiksb_hau.svg"
   inkscape:export-filename="neoblobiksb_hau.png"
   inkscape:export-xdpi="48"
   inkscape:export-ydpi="48"
   xmlns:inkscape="http://www.inkscape.org/namespaces/inkscape"
   xmlns:sodipodi="http://sodipodi.sourceforge.net/DTD/sodipodi-0.dtd"
   xmlns:xlink="http://www.w3.org/1999/xlink"
   xmlns="http://www.w3.org/2000/svg"
   xmlns:svg="http://www.w3.org/2000/svg">
  <sodipodi:namedview
     id="namedview7"
     pagecolor="#ffffff"
     bordercolor="#000000"
     borderopacity="0.25"
     inkscape:showpageshadow="2"
     inkscape:pageopacity="0.0"
     inkscape:pagecheckerboard="0"
     inkscape:deskcolor="#d1d1d1"
     inkscape:document-units="mm"
     showgrid="false"
     inkscape:zoom="0.77326038"
     inkscape:cx="312.96056"
     inkscape:cy="288.38927"
     inkscape:window-width="1920"
     inkscape:window-height="1012"
     inkscape:window-x="0"
     inkscape:window-y="0"
     inkscape:window-maximized="1"
     inkscape:current-layer="layer1" />
  <defs
     id="defs2">
    <inkscape:path-effect
       effect="fillet_chamfer"
       id="path-effect5374"
       is_visible="true"
       lpeversion="1"
       nodesatellites_param="F,0,0,1,0,0,0,1 @ F,0,0,1,0,0,0,1 @ F,0,0,1,0,0,0,1"
       unit="px"
       method="auto"
       mode="F"
       radius="0"
       chamfer_steps="1"
       flexible="false"
       use_knot_distance="true"
       apply_no_radius="true"
       apply_with_radius="true"
       only_selected="false"
       hide_knots="false" />
    <linearGradient
       inkscape:collect="always"
       id="linearGradient7258">
      <stop
         style="stop-color:#ffae0e;stop-opacity:1;"
         offset="0"
         id="stop7254" />
      <stop
         style="stop-color:#ffc61a;stop-opacity:1;"
         offset="0.29383886"
         id="stop7256" />
    </linearGradient>
    <linearGradient
       inkscape:collect="always"
       id="linearGradient4142">
      <stop
         style="stop-color:#f34e18;stop-opacity:0.34999999;"
         offset="0"
         id="stop4138" />
      <stop
         style="stop-color:#f34e18;stop-opacity:0;"
         offset="1"
         id="stop4140" />
    </linearGradient>
    <clipPath
       clipPathUnits="userSpaceOnUse"
       id="clipPath1338">
      <rect
         style="fill:#b46900;fill-opacity:1;stroke-width:1;stroke-linecap:round;stroke-linejoin:round;paint-order:markers stroke fill"
         id="rect1340"
         width="54.56147"
         height="75.945312"
         x="-64.265678"
         y="-70.042145"
         ry="25.74099" />
    </clipPath>
    <radialGradient
       inkscape:collect="always"
       xlink:href="#linearGradient4142"
       id="radialGradient4200"
       cx="30.74613"
       cy="98.631081"
       fx="30.74613"
       fy="98.631081"
       r="14.414044"
       gradientUnits="userSpaceOnUse"
       gradientTransform="matrix(1.5934592,0,0,1.5934592,-18.246572,-58.533512)" />
    <radialGradient
       inkscape:collect="always"
       xlink:href="#linearGradient4142"
       id="radialGradient4200-2"
       cx="30.74613"
       cy="98.631081"
       fx="30.74613"
       fy="98.631081"
       r="14.414044"
       gradientUnits="userSpaceOnUse"
       gradientTransform="matrix(1.5934592,0,0,1.5934592,55.72784,-58.533511)" />
    <linearGradient
       inkscape:collect="always"
       xlink:href="#linearGradient7258"
       id="linearGradient7260"
       x1="67.73333"
       y1="135.46666"
       x2="67.73333"
       y2="17.4625"
       gradientUnits="userSpaceOnUse" />
  </defs>
  <g
     inkscape:label="Layer 1"
     inkscape:groupmode="layer"
     id="layer1">
    <path
       id="path286"
       style="fill:url(#linearGradient7260);fill-opacity:1;stroke-linecap:round;stroke-linejoin:round;paint-order:markers stroke fill"
       d="m 135.46666,105.30416 c 0,37.40809 -30.32524,30.1625 -67.73333,30.1625 C 30.325245,135.46666 0,142.71225 0,105.30416 0,67.896078 18.349436,17.4625 67.73333,17.4625 c 49.38389,0 67.73333,50.433578 67.73333,87.84166 z"
       sodipodi:nodetypes="ssszs" />
    <path
       id="path385-3"
       style="fill:#ffc61a;fill-opacity:1;stroke-width:1.52371;stroke-linecap:round;stroke-linejoin:round;paint-order:markers stroke fill"
       d="m 89.001694,46.262913 c 13.411716,6.38579 26.013056,20.976533 33.123556,16.416943 3.69497,-2.369386 6.79939,-17.209741 5.86904,-25.553003 C 125.27359,12.728025 108.73017,3.214914 100.61416,16.813843 94.321789,27.357134 68.620596,36.55875 89.001694,46.262913 Z"
       sodipodi:nodetypes="sssss" />
    <path
       id="path385-3-5"
       style="fill:#ffc61a;fill-opacity:1;stroke-width:1.52371;stroke-linecap:round;stroke-linejoin:round;paint-order:markers stroke fill"
       d="M 46.46498,46.262913 C 33.053267,52.648703 20.451927,67.239446 13.341427,62.679856 9.646457,60.31047 6.542037,45.470115 7.472387,37.126853 c 2.7207,-24.398828 19.26412,-33.9119388 27.38013,-20.31301 6.292368,10.543291 31.993561,19.744907 11.612463,29.44907 z"
       sodipodi:nodetypes="sssss" />
    <circle
       style="mix-blend-mode:color-burn;fill:url(#radialGradient4200);fill-opacity:1;stroke:none;stroke-width:6.00001;stroke-linecap:round;stroke-linejoin:round;stroke-dasharray:none;stroke-opacity:1;paint-order:markers stroke fill"
       id="path4136"
       cx="30.746132"
       cy="98.631088"
       r="22.968191" />
    <circle
       style="mix-blend-mode:color-burn;fill:url(#radialGradient4200-2);fill-opacity:1;stroke:none;stroke-width:6.00001;stroke-linecap:round;stroke-linejoin:round;stroke-dasharray:none;stroke-opacity:1;paint-order:markers stroke fill"
       id="path4136-2"
       cx="104.72054"
       cy="98.631088"
       r="22.968191" />
    <path
       id="path286-7"
       style="fill:#9a6800;fill-opacity:1;stroke-linecap:round;stroke-linejoin:round;paint-order:markers stroke fill"
       d="m 30.74838,37.999338 c 0,37.40809 -30.32524,30.1625 -67.73333,30.1625 -37.408085,0 -67.73333,7.24559 -67.73333,-30.1625 0,-37.408082 18.349436,-87.84166 67.73333,-87.84166 49.38389,0 67.73333,50.433578 67.73333,87.84166 z"
       sodipodi:nodetypes="ssszs"
       clip-path="url(#clipPath1338)"
       transform="translate(104.71828,67.304822)" />
    <path
       style="color:#000000;fill:#f32b18;stroke-linecap:round;stroke-linejoin:round;-inkscape-stroke:none;paint-order:markers stroke fill"
       d="m 67.732422,94.630859 c -8.776953,0 -21.623759,17.742051 -15.919922,22.861331 1.688139,1.42493 4.211775,1.21157 5.636719,-0.47656 0,0 2.070978,-3.71662 10.283203,-3.71693 8.212225,-3.2e-4 10.285156,3.71693 10.285156,3.71693 1.424944,1.68813 3.94858,1.90149 5.636719,0.47656 3.877444,-6.01542 -7.144922,-22.861331 -15.921875,-22.861331 z"
       id="path1721"
       sodipodi:nodetypes="zcczccz" />
    <path
       style="fill:none;stroke:#1a1a1a;stroke-width:6;stroke-linecap:round;stroke-linejoin:round;stroke-dasharray:none;stroke-opacity:1;paint-order:markers fill stroke"
       d="m 102.45353,79.409943 c -13.120582,-4.226391 -19.703111,5.650923 -20.186261,7.200974 0,0 16.427546,1.678042 25.493511,9.932825"
       id="path371-3"
       sodipodi:nodetypes="ccc" />
    <path
       style="fill:none;stroke:#1a1a1a;stroke-width:6;stroke-linecap:round;stroke-linejoin:round;stroke-dasharray:none;stroke-opacity:1;paint-order:markers fill stroke"
       d="m 33.013146,79.409943 c 13.120577,-4.226391 19.703106,5.650923 20.186256,7.200974 0,0 -16.427546,1.678042 -25.493506,9.932825"
       id="path371-3-6"
       sodipodi:nodetypes="ccc" />
  </g>
</svg>
